<svg fill="none" height="72" viewBox="0 0 72 72" width="72" xmlns="http://www.w3.org/2000/svg"><g fill="#fff"><path d="m36.037 40.872-.01.016h.019z"/><path clip-rule="evenodd" d="m41.5603 60.3794v-10.0813h-1v11.0813h8.941c5.8133 0 10.4568 4.3439 10.4568 9.6206h1c0-5.9022-5.1675-10.6206-11.4568-10.6206z" fill-rule="evenodd"/><path clip-rule="evenodd" d="m30.4397 60.3794v-10.0813h1v11.0813h-8.941c-5.8133 0-10.4567 4.3439-10.4567 9.6206h-1c0-5.9022 5.1674-10.6206 11.4567-10.6206z" fill-rule="evenodd"/><path d="m9.2219 8.57308v34.64942h53.5561v-34.64942zm11.6748 25.12252-8.2593-8.1792 8.2539-8.1723 7.3911.0005-8.2529 8.1723 8.2583 8.1792zm15.3325.0015-5.4648-.0005 5.0454-16.351 5.4648.0004zm14.874.0015-7.1626-.001 8.2583-8.1773-8.2534-8.1743 7.1631.0005 8.2539 8.1743z"/><path d="m63.2651 2c1.7856.0021 3.4974.71234 4.76 1.97491 1.2626 1.26258 1.9728 2.9744 1.9749 4.75995v34.53024c-.0021 1.7856-.7123 3.4974-1.9749 4.76s-2.9744 1.9728-4.76 1.9749h-54.53024c-1.78555-.0021-3.49737-.7123-4.75995-1.9749-1.26257-1.2626-1.97281-2.9744-1.97491-4.76v-34.53024c.0021-1.78555.71234-3.49737 1.97491-4.75995 1.26258-1.26257 2.9744-1.97281 4.75995-1.97491zm0-1h-54.53024c-2.04953.0061-4.01338.82298-5.46263 2.27223s-2.26613 3.4131-2.27223 5.46263v34.53024c.0061 2.0496.82298 4.0134 2.27223 5.4627 1.44925 1.4492 3.4131 2.2661 5.46263 2.2722h54.53024c2.0496-.0061 4.0134-.823 5.4627-2.2722 1.4492-1.4493 2.2661-3.4131 2.2722-5.4627v-34.53024c-.0061-2.04953-.823-4.01338-2.2722-5.46263-1.4493-1.44925-3.4131-2.26613-5.4627-2.27223z"/></g></svg>