<svg xmlns:xlink="http://www.w3.org/1999/xlink" fill="none" height="1352" viewBox="0 0 1201 1352" width="1201" xmlns="http://www.w3.org/2000/svg"><filter id="a" color-interpolation-filters="sRGB" filterUnits="userSpaceOnUse" height="90.5913" width="136.544" x="621.1" y="321.752"><feFlood flood-opacity="0" result="BackgroundImageFix"/><feBlend in="SourceGraphic" in2="BackgroundImageFix" mode="normal" result="shape"/><feGaussianBlur result="effect1_foregroundBlur_3554_17047" stdDeviation="2"/></filter><linearGradient id="b"><stop offset="0" stop-color="#fff" stop-opacity="0"/><stop offset=".669158" stop-color="#fff"/></linearGradient><radialGradient id="c" cx="0" cy="0" gradientTransform="matrix(0 15.9976 -20.8208 0 148.993 1081.96)" gradientUnits="userSpaceOnUse" r="1" xlink:href="#b"/><radialGradient id="d" cx="0" cy="0" gradientTransform="matrix(0 15.9976 -20.8208 0 327.883 1199.47)" gradientUnits="userSpaceOnUse" r="1" xlink:href="#b"/><radialGradient id="e" cx="0" cy="0" gradientTransform="matrix(0 15.9976 -20.8208 0 466.524 1284.31)" gradientUnits="userSpaceOnUse" r="1" xlink:href="#b"/><radialGradient id="f" cx="0" cy="0" gradientTransform="matrix(0 422.757 -872.394 0 595.736 525.165)" gradientUnits="userSpaceOnUse" r="1"><stop offset=".148208" stop-color="#167dff"/><stop offset="1" stop-color="#fff"/></radialGradient><radialGradient id="g" cx="0" cy="0" gradientTransform="matrix(1.77423511 6.4257227 -3.07976669 .85036819 732.124 365.271)" gradientUnits="userSpaceOnUse" r="1"><stop offset="0" stop-color="#ef8686"/><stop offset="1" stop-color="#ef8686" stop-opacity="0"/></radialGradient><linearGradient id="h" gradientUnits="userSpaceOnUse" x1="974.543" x2="974.543" y1="405.445" y2="939.145"><stop offset="0" stop-color="#fff" stop-opacity="0"/><stop offset=".867267" stop-color="#fff"/></linearGradient><radialGradient id="i" cx="0" cy="0" gradientTransform="matrix(-183.00566318 -39.52376337 39.70404535 -183.84041728 695.681 384.766)" gradientUnits="userSpaceOnUse" r="1"><stop offset="0" stop-color="#fff" stop-opacity="0"/><stop offset=".576939" stop-color="#fff"/></radialGradient><radialGradient id="j" cx="0" cy="0" gradientTransform="matrix(0 879.904 -5177.31 0 586.993 68.0162)" gradientUnits="userSpaceOnUse" r="1"><stop offset="0" stop-color="#167dff" stop-opacity="0"/><stop offset="1" stop-color="#167dff" stop-opacity=".38"/></radialGradient><radialGradient id="k" cx="0" cy="0" gradientTransform="matrix(44.17926961 61.27815703 -104.13397164 75.07671627 695.319 367.266)" gradientUnits="userSpaceOnUse" r="1"><stop offset="0" stop-color="#fff" stop-opacity="0"/><stop offset=".481089" stop-color="#fff"/></radialGradient><radialGradient id="l" cx="0" cy="0" gradientTransform="matrix(9.45720093 891.61984626 -2070.94350915 21.96600824 356.459 62.0932)" gradientUnits="userSpaceOnUse" r="1"><stop offset=".251344" stop-color="#4dcbff" stop-opacity="0"/><stop offset="1" stop-color="#51ccff" stop-opacity=".45"/></radialGradient><radialGradient id="m" cx="0" cy="0" gradientTransform="matrix(78.46443266 453.01601509 -460.76957188 79.80738394 335.428 650.777)" gradientUnits="userSpaceOnUse" r="1"><stop offset=".381724" stop-color="#51ccff"/><stop offset="1" stop-color="#fff"/></radialGradient><radialGradient id="n" cx="0" cy="0" gradientTransform="matrix(-66.91085851 -246.61307114 249.03742232 -67.5686315 538.849 872.875)" gradientUnits="userSpaceOnUse" r="1"><stop offset=".304993" stop-color="#14baff"/><stop offset="1" stop-color="#51ccff" stop-opacity="0"/></radialGradient><radialGradient id="o" cx="0" cy="0" gradientTransform="matrix(2.73880799 -670.89040964 682.37231396 2.78568111 564.786 1181.17)" gradientUnits="userSpaceOnUse" r="1"><stop offset="0" stop-color="#17e6e8"/><stop offset=".788322" stop-color="#fff" stop-opacity="0"/></radialGradient><radialGradient id="p" cx="0" cy="0" gradientTransform="matrix(38.67002095 417.73797536 -424.8874082 39.33184423 585.799 809.07)" gradientUnits="userSpaceOnUse" r="1"><stop offset=".245324" stop-color="#17e6e8"/><stop offset=".843774" stop-color="#fff"/></radialGradient><radialGradient id="q" cx="0" cy="0" gradientTransform="matrix(-237.05537076 -145.29048338 189.05472333 -308.46092938 718.553 995.222)" gradientUnits="userSpaceOnUse" r="1"><stop offset=".378593" stop-color="#00cdcf"/><stop offset="1" stop-color="#54edee" stop-opacity="0"/></radialGradient><radialGradient id="r" cx="0" cy="0" gradientTransform="matrix(11.85417231 -631.20569792 455.06175782 8.54615303 748.834 1133.18)" gradientUnits="userSpaceOnUse" r="1"><stop offset="0" stop-color="#167dff"/><stop offset=".881084" stop-color="#fff" stop-opacity="0"/></radialGradient><radialGradient id="s" cx="0" cy="0" gradientTransform="matrix(-354.14165454 174.85854365 -126.06250937 -255.31486602 723.791 943.058)" gradientUnits="userSpaceOnUse" r="1"><stop offset=".267843" stop-color="#167dff"/><stop offset="1" stop-color="#fff"/></radialGradient><path clip-rule="evenodd" d="m779.215 291.968c.626-.543 1.574-.475 2.116.151 4.747 5.48 6.191 11.459 6.324 17.394.091 4.043-.438 8.203-.939 12.141-.218 1.715-.431 3.387-.584 4.99-.522 5.43-.409 10.228 1.854 14.328 2.238 4.055 6.756 7.725 15.737 10.462.792.241 1.239 1.079.997 1.872-.241.792-1.079 1.239-1.872.997-9.403-2.865-14.736-6.895-17.488-11.881-2.727-4.941-2.746-10.526-2.215-16.065.173-1.799.4-3.581.626-5.354.488-3.827.97-7.608.885-11.423-.122-5.45-1.425-10.686-5.592-15.496-.543-.626-.475-1.574.151-2.116z" fill="#000" fill-rule="evenodd"/><path d="m169.813 1081.96c0 8.83-9.321 16-20.82 16s-20.821-7.17-20.821-16c0-8.84 9.322-16 20.821-16s20.82 7.16 20.82 16z" fill="url(#c)"/><path d="m348.704 1199.47c0 8.84-9.322 16-20.821 16s-20.821-7.16-20.821-16c0-8.83 9.322-15.99 20.821-15.99s20.821 7.16 20.821 15.99z" fill="url(#d)"/><path d="m487.345 1284.31c0 8.84-9.322 16-20.821 16s-20.821-7.16-20.821-16 9.322-16 20.821-16 20.821 7.16 20.821 16z" fill="url(#e)"/><path clip-rule="evenodd" d="m595.447 646.449c-2.652-1.561-5.941-1.568-8.598-.017l-579.06111 337.996c-3.05854 1.785-4.68971 5.28-4.09398 8.771l47.64439 279.201c.6309 3.69 3.6101 6.54 7.3319 7l557.1068 69.15c1.849.22 3.723-.16 5.332-1.1l572.451-334.14c5.61-3.27 5.63-11.37.03-14.663l-150.4-88.559 1.52-2.585 150.4 88.558c7.57 4.459 7.55 15.409-.03 19.839l-572.459 334.14c-2.177 1.27-4.711 1.79-7.213 1.48l-557.1073-69.14c-5.0354-.63-9.0661-4.48-9.9197-9.48l-47.644338-279.197c-.8059852-4.723 1.400888-9.451 5.538918-11.866l579.06042-337.995c3.596-2.099 8.045-2.091 11.633.022l306.553 180.503-1.523 2.585z" fill="#fff" fill-rule="evenodd"/><path clip-rule="evenodd" d="m249.336 1023.15c.419.71.179 1.63-.536 2.05l-87.419 51.21c-.714.42-1.633.18-2.052-.54-.419-.71-.179-1.63.536-2.05l87.419-51.21c.715-.42 1.634-.18 2.052.54z" fill="#fff" fill-rule="evenodd"/><path d="m726.445 470.34 1.726 374.916c.008 2.305-.78 4.541-2.231 6.332l-60.788 75.011c-1.53 1.889-3.695 3.154-6.09 3.563l-103.484 17.619c-2.338.397-4.74-.048-6.779-1.257l-80.599-47.795c-3.037-1.801-4.899-5.07-4.899-8.602v-449.091c0-3.656 1.995-7.02 5.202-8.774l97.024-53.052c1.837-1.004 3.944-1.407 6.022-1.15l113.57 14.003c3.399.419 6.346 2.548 7.813 5.642l32.554 68.67c.601 1.265.916 2.616.959 3.965z" fill="url(#f)"/><path d="m803.303 431.227c6.865 6.804 6.388 62.274-20.467 46.819-21.27-31.204-26.975-18.23-36.009-40.063-4.459-.362-4.44-2.228-5.743-3.414 1.712 8.072-5.878 10.292-6.375 5.234-.452-4.599-11.183-13.792-2.395-19.14-4.036-5.634-2.119-9.402 1.323-11.589-1.843-9.067 1.921-11.329 5.578-12.278 3.657-.948 6.426 3.289 9.39 6.918-3.438-6.089-18.27-32.137-19.903-37.612-2.584-8.663 6.167-10.508 8.576-6.751 4.714 7.354 9.826 13.965 14.5 21.256 7.595-4.468 7.954 10.25 18.582 21.485 7.907 8.359 11.402 9.734 14.995 13.963 3.593 4.228 11.082 8.368 17.948 15.172z" fill="#faa"/><path d="m1032.24 338.457-15.89-10.432c23.68-2.319 42.06 10.432 36.59 9.438-4.37-.795-15.62.331-20.7.994z" fill="#faa"/><path d="m850.858 458.91c-6.042-6.237-21.509-24.594-34.762-30.441v8.649z" fill="#0c0c0d"/><path d="m789.347 343.929c-4.727-15.364 13.15-39.977-15.831-58.019 10.804 1.89 96.452-32.849 101.666 32.53-37.703-17.247-44.225 10.268-51.251 22.367-7.842 19.42-30.103 17.687-34.584 3.122z" fill="#0c0c0d"/><path d="m733.523 371.703c-2.598 2.201-8.5-12.208-2.109-13.119 3.83-1.058 4.707 10.918 2.109 13.119z" fill="url(#g)"/><path d="m856.725 525.711c18.742-11.636 30.924-60.753 1.54-112.399l33.142 20.29c1.149 2.401 2.005 14.781-3.758 45.095-5.762 30.315-23.017 43.974-30.924 47.014z" fill="#0c0c0d" fill-opacity=".2"/><path clip-rule="evenodd" d="m745.398 406.318c.751-.35 1.643-.024 1.993.727 1.934 4.156 3.111 10.331 2.992 15.341-.059 2.489-.44 4.885-1.356 6.634-.466.891-1.115 1.697-2.012 2.215-.923.534-1.979.688-3.094.478-1.278-.24-2.286-.787-3.08-1.678-.746-.838-1.228-1.898-1.636-3.013-.282-.771-.54-1.587-.821-2.477-.58-1.836-1.259-3.986-2.456-6.702-1.27-2.882-2.493-5.74-3.241-8.394-.225-.798.239-1.626 1.036-1.851.798-.225 1.626.239 1.851 1.037.683 2.422 1.82 5.097 3.099 7.997 1.259 2.857 2.05 5.351 2.652 7.25.26.82.485 1.529.697 2.108.376 1.028.702 1.648 1.059 2.049.309.347.702.595 1.395.726.486.091.801.01 1.038-.127.264-.152.565-.454.855-1.009.599-1.143.96-2.992 1.015-5.314.11-4.611-.998-10.319-2.713-14.004-.35-.751-.024-1.644.727-1.993z" fill="#ef8686" fill-rule="evenodd"/><path clip-rule="evenodd" d="m731.688 419.27c.709-.428 1.631-.2 2.059.51.684 1.132 1.463 2.284 2.303 3.527.499.737 1.019 1.506 1.554 2.323.802 1.224 1.509 2.349 2.158 3.382.938 1.493 1.753 2.791 2.559 3.915 1.368 1.907 2.387 2.815 3.335 3.086.975.278 2.097-.074 2.695-1.204.629-1.188.863-3.626-1.115-7.736-.359-.747-.045-1.643.701-2.002.747-.36 1.643-.046 2.002.701 2.164 4.494 2.337 8.033 1.064 10.44-1.305 2.466-3.925 3.328-6.172 2.685-2.022-.578-3.557-2.284-4.948-4.222-.845-1.178-1.754-2.623-2.744-4.198-.646-1.025-1.325-2.106-2.044-3.203-.478-.729-.972-1.461-1.462-2.185-.876-1.297-1.736-2.57-2.454-3.759-.428-.71-.2-1.632.509-2.06z" fill="#ef8686" fill-rule="evenodd"/><path clip-rule="evenodd" d="m753.962 381.819c-.388-.039-.909.043-1.635.448-.12.066-.769.686-1.073 2.454-.287 1.672-.214 4.164.824 7.515 1.052 3.397 2.82 7.137 4.392 10.218.583 1.145 1.132 2.183 1.604 3.076.162.306.315.595.457.865.275.524.515.987.696 1.358.155.319.343.719.423 1.045.601 2.446.827 5.076 1.033 7.737.015.201.031.403.046.604.192 2.503.389 5.063.851 7.719.987 5.675 3.186 11.777 9.203 18.068.573.599.552 1.548-.047 2.121-.599.572-1.548.551-2.121-.047-6.503-6.799-8.922-13.482-9.991-19.628-.488-2.805-.694-5.501-.884-7.984-.016-.209-.032-.416-.048-.621-.208-2.687-.422-5.081-.955-7.254.003.014.001.01-.01-.018-.022-.051-.078-.182-.197-.428-.159-.326-.38-.753-.655-1.276-.136-.26-.286-.543-.445-.844-.474-.897-1.038-1.963-1.633-3.129-1.586-3.11-3.453-7.04-4.585-10.694-1.146-3.702-1.298-6.68-.914-8.912.367-2.135 1.285-3.851 2.568-4.566 1.117-.623 2.252-.928 3.399-.811 1.146.116 2.126.635 2.968 1.344 1.607 1.352 2.982 3.643 4.37 6.135.338.606.682 1.236 1.037 1.885 2.66 4.864 5.899 10.785 11.244 15.879.6.571.623 1.521.052 2.121-.572.599-1.521.622-2.121.051-5.708-5.439-9.172-11.784-11.819-16.632-.351-.643-.688-1.26-1.014-1.844-1.438-2.583-2.567-4.363-3.68-5.3-.518-.436-.951-.615-1.34-.655z" fill="#ef8686" fill-rule="evenodd"/><path clip-rule="evenodd" d="m736.684 381.356c.744-.364 1.643-.056 2.007.688 5.802 11.859 9.253 18.369 15.609 28.195.45.696.25 1.624-.445 2.074-.696.45-1.624.251-2.074-.445-6.445-9.963-9.954-16.589-15.785-28.506-.364-.744-.056-1.642.688-2.006z" fill="#ef8686" fill-rule="evenodd"/><path clip-rule="evenodd" d="m550.975 569.391c.828 0 1.5.671 1.5 1.5v173.851c0 .829-.672 1.5-1.5 1.5-.829 0-1.5-.671-1.5-1.5v-173.851c0-.829.671-1.5 1.5-1.5z" fill="#005fd7" fill-rule="evenodd"/><path clip-rule="evenodd" d="m663.936 560.523c.828 0 1.5.672 1.5 1.5v149.476c0 .828-.672 1.5-1.5 1.5-.829 0-1.5-.672-1.5-1.5v-149.476c0-.828.671-1.5 1.5-1.5z" fill="#005fd7" fill-rule="evenodd"/><path d="m1081.06 677.311c-1.45-43.585 8.2-95.234 16.92-143.177 5.99-32.943 15.41-87.152-14.17-128.689-4.71 13.174-15.83 19.744-35.97 23.771-20.13 4.026-44.64-5.851-44.64-5.851-16.446 11.88-38.075 25.893-89.252 17.059-9.17 34.132-3.273 409.108-20.928 451.144-13.352 31.791-66.926 65.434-41.446 69.181 25.479 3.746 57.05-25.657 87.775-36.148 30.626-10.458 23.342-19.963 37.186-59.811-2.362 26.856-5.274 46.779-8.863 55.324-13.352 31.79-66.925 65.433-41.446 69.18 25.48 3.747 57.05-25.656 87.774-36.148 30.73-10.491 23.3-20.024 37.32-60.198 31.64-90.613 31.19-172.053 29.74-215.637z" fill="url(#h)"/><g fill="#0c0c0d"><path clip-rule="evenodd" d="m986.601 495.5c.829 0 1.5.672 1.5 1.5 0 50.478-.799 260.518-9.937 366.374-.071.825-.798 1.436-1.623 1.365s-1.437-.798-1.365-1.623c9.123-105.701 9.925-315.598 9.925-366.116 0-.828.672-1.5 1.5-1.5z" fill-rule="evenodd"/><path clip-rule="evenodd" d="m795.681 423.885c.474-.68 1.409-.847 2.088-.374 6.205 4.322 14.505 9.455 24.041 15.344l.507.312c9.394 5.801 19.935 12.309 30.742 19.435.692.456.883 1.387.427 2.078-.456.692-1.386.883-2.078.427-10.77-7.102-21.279-13.59-30.68-19.395l-.494-.305c-9.511-5.873-17.891-11.055-24.179-15.434-.68-.473-.847-1.408-.374-2.088z" fill-rule="evenodd"/><path clip-rule="evenodd" d="m1043.05 429.028c.47.681.3 1.615-.38 2.087-12.26 8.505-40.22 27.372-53.621 34.55-8.62 4.618-19.141 6.796-31.881 4.147-12.702-2.641-27.527-10.062-44.85-24.482-.637-.53-.723-1.476-.193-2.113.53-.636 1.475-.723 2.112-.193 17.087 14.224 31.474 21.342 43.542 23.851 12.031 2.501 21.836.44 29.853-3.854 13.218-7.082 41.028-25.843 53.328-34.371.68-.472 1.61-.303 2.09.378z" fill-rule="evenodd"/><path clip-rule="evenodd" d="m836.678 306.924c.284.778-.117 1.639-.895 1.923-14.944 5.45-23.869 13.503-28.237 23.333-4.384 9.867-4.295 21.785-.66 35.175 1.195 4.405 2.297 8.262 3.303 11.783 2.073 7.252 3.737 13.078 4.973 19.33 1.849 9.353 2.752 19.69 2.752 37.357 0 .828-.671 1.5-1.5 1.5-.828 0-1.5-.672-1.5-1.5 0-17.566-.899-27.688-2.695-36.775-1.211-6.129-2.825-11.773-4.873-18.94-1.011-3.538-2.128-7.447-3.356-11.969-3.737-13.768-3.951-26.455.814-37.179 4.781-10.76 14.458-19.283 29.951-24.934.779-.284 1.64.117 1.923.896z" fill-rule="evenodd"/><path clip-rule="evenodd" d="m1057.81 339.788c.47-.679 1.41-.843 2.09-.368 7.81 5.47 14.13 12.493 20.3 22.529 8.6 13.962 9.44 27.508 6.69 38.372-2.73 10.782-9.03 19.027-14.9 22.321-30.24 16.968-70.08 9.215-117.671-24.255-.678-.477-.841-1.413-.364-2.09.476-.678 1.412-.841 2.09-.364 47.295 33.259 85.785 40.192 114.475 24.093 4.98-2.797 10.88-10.248 13.46-20.441 2.56-10.112 1.82-22.82-6.33-36.064-6.01-9.769-12.07-16.458-19.48-21.644-.67-.475-.84-1.41-.36-2.089z" fill-rule="evenodd"/><path d="m950.52 393.43c8.903 5.628 39.001 32.069 88.93 37.676-5.57 5.32-18.71 14.348-29.94 19.372 11.53-15.959-4.71-24.344-15.882-20.542-13.306-9.342-30.934-22.565-43.108-36.506z" fill-opacity=".5"/><path clip-rule="evenodd" d="m927.434 294.367c0-.828.671-1.5 1.5-1.5 17.548 0 35.213 5.248 55.126 15.009 19.9 9.755 42.14 24.064 68.84 42.267.68.467.86 1.4.39 2.084-.46.685-1.4.861-2.08.395-26.7-18.201-48.78-32.4-68.47-42.052-19.678-9.646-36.877-14.703-53.806-14.703-.829 0-1.5-.671-1.5-1.5z" fill-rule="evenodd"/><path clip-rule="evenodd" d="m1053.97 339.956c-4.9-1.8-11.74-2.592-21.83-.481-.81.17-1.6-.35-1.77-1.161s.35-1.606 1.16-1.775c10.51-2.201 17.94-1.431 23.47.601 5.41 1.988 8.87 5.142 11.46 7.511.05.046.1.092.15.137.61.559.66 1.507.1 2.119s-1.51.656-2.12.097l-.09-.08c-2.59-2.365-5.68-5.184-10.53-6.968z" fill-rule="evenodd"/></g><path clip-rule="evenodd" d="m572.226 1225.88c.419.72.179 1.64-.536 2.05l-91.203 53.43c-.715.42-1.634.18-2.053-.54-.418-.71-.178-1.63.537-2.05l91.203-53.42c.714-.42 1.633-.18 2.052.53z" fill="#fff" fill-rule="evenodd"/><path clip-rule="evenodd" d="m428.704 1141.5c.419.71.179 1.63-.536 2.05l-87.345 51.17c-.715.42-1.634.18-2.053-.54-.418-.71-.178-1.63.537-2.05l87.345-51.17c.715-.42 1.634-.18 2.052.54z" fill="#fff" fill-rule="evenodd"/><path clip-rule="evenodd" d="m891.56 433.008c.828 0 1.5.671 1.5 1.5 0 53.403-13.64 79.074-30.01 89.779-16.353 10.693-34.856 6.076-43.683.191-6.216-4.144-14.345-13.369-22.683-24.105-8.384-10.794-17.123-23.308-24.561-34.207-.467-.684-.291-1.618.393-2.085s1.617-.291 2.084.394c7.432 10.888 16.128 23.339 24.453 34.058 8.371 10.778 16.226 19.614 21.978 23.449 8.105 5.403 25.282 9.664 40.377-.206 15.077-9.859 28.652-34.193 28.652-87.268 0-.829.671-1.5 1.5-1.5z" fill="#0c0c0d" fill-rule="evenodd"/><path d="m559.369 265.198c-1.089-1.666.657-3.727 2.479-2.926l185.955 81.742c.355.156.657.412.869.736l104.366 159.584c1.09 1.665-.657 3.726-2.478 2.926l-185.956-81.743c-.355-.156-.657-.411-.869-.736z" fill="url(#i)"/><path d="m468.188 521.229c-3.037-1.801-4.899-5.07-4.899-8.601v-72.336c0-3.656 1.995-7.02 5.203-8.774l97.023-53.051c1.838-1.005 3.944-1.407 6.022-1.151l113.571 14.004c3.398.419 6.345 2.547 7.812 5.641l32.555 68.67c1.648 3.477 1.155 7.591-1.267 10.58l-59.067 72.889c-1.53 1.888-3.695 3.154-6.091 3.562l-103.484 17.618c-2.337.398-4.74-.047-6.779-1.256z" fill="#167dff"/><path clip-rule="evenodd" d="m723.817 476.843c.643.523.741 1.467.219 2.11l-57.737 71.107c-1.759 2.167-4.246 3.62-6.997 4.088l-107.11 18.236c-.816.139-1.591-.41-1.73-1.227-.139-.816.41-1.591 1.227-1.73l107.109-18.236c2.034-.346 3.872-1.42 5.172-3.022l57.737-71.107c.522-.643 1.466-.741 2.11-.219zm-254.124 45.423c.422-.713 1.342-.95 2.055-.528l70.48 41.664c.713.422.949 1.341.528 2.055-.422.713-1.342.949-2.055.528l-70.48-41.664c-.713-.422-.949-1.342-.528-2.055z" fill="#005fd7" fill-rule="evenodd"/><path d="m769.272 234.437c-17.348 17.473-10.245 60.623 8.82 57.19 10.049-1.809-.22-43.915-8.82-57.19z" fill="#0c0c0d"/><path d="m643.846 420.433c-1.889-1.268-4.771-.893-6.482.807l-.871.797c-.909.981-1.759 1.989-2.548 3.023-1.585 1.922-3.388 3.718-5.369 5.393-.794.427-1.717.674-2.619.693l-1.386 1.146c-2.011-1.301-4.159-2.489-6.406-3.519-9.403-4.368-20.436-6.106-31.637-4.993l-.31-1.579c-.787-.305-1.381-.885-1.629-1.578-.358-2.19-.481-4.421-.332-6.646.133-1.181.204-2.367.169-3.543l-.132-1.038c-.1-.931-.564-1.77-1.299-2.405-.89-.775-2.198-1.109-3.536-.901-2.521.535-4.231 2.675-3.844 4.763l.119.953c.269 1.135.602 2.256 1.022 3.342.701 2.097 1.164 4.276 1.304 6.55-.156.76-.581 1.494-1.184 2.107l.054 1.638c-13.669 3.306-25.904 10.685-34.371 20.703l-1.654-.66c-.88.231-1.787.312-2.657.208-2.275-.948-4.427-2.095-6.414-3.435-.997-.743-2.062-1.431-3.172-2.081l-1.002-.471-.098-.073c-1.926-1.104-4.677-.569-6.161 1.174-.567.678-.893 1.464-.905 2.258-.029 1.4.902 2.619 2.358 3.155l.059.047.929.57c1.212.471 2.472.863 3.758 1.215 2.423.712 4.746 1.602 6.922 2.709.598.538.975 1.202 1.113 1.948l1.613.865c-6.457 10.899-8.198 23.063-4.858 34.182l-1.758.649c-.297.705-.796 1.327-1.49 1.806-2.547 1.035-5.181 1.873-7.877 2.496-1.386.266-2.778.594-4.134.989l-1.238.468c-2.348.698-3.766 2.845-3.153 4.767.223.732.749 1.368 1.46 1.813 1.288.771 3.04.833 4.571.141l1.172-.433c1.289-.568 2.544-1.224 3.739-1.905 2.86-1.236 5.506-2.869 7.97-3.242.715-.036 1.389.132 1.969.418l1.965-.63c5.532 10.301 15.545 18.16 28.153 22.058l-.588 1.556c.532.574.733 1.326.597 2.087-.816 2.204-1.877 4.343-3.14 6.4-.729 1.061-1.379 2.172-1.966 3.288l-.412 1.029c-1.021 1.933-.073 4.075 2.145 4.746.833.268 1.795.275 2.696.047 1.629-.411 2.909-1.545 3.355-2.926l.436-1.068c.363-1.18.642-2.346.839-3.542.505-2.233 1.239-4.445 2.2-6.636.486-.707 1.288-1.217 2.191-1.466.217-.524.455-1.046.753-1.541 13.447 1.906 27.723-.527 40.127-6.822l1.077 1.233c.903-.04 1.755.25 2.357.747 1.466 1.751 2.666 3.665 3.737 5.609.485 1.072 1.033 2.129 1.672 3.111.167.225.432.522.618.77l.058.047c1.091 1.737 3.719 2.28 5.895 1.188.836-.423 1.523-1.048 1.951-1.803.752-1.31.579-2.792-.409-3.849l-.67-.88c-.838-.875-1.742-1.714-2.714-2.497-1.737-1.547-3.27-3.262-4.561-5.101-.246-.715-.233-1.509.027-2.259l-.861-1.295c11.154-7.9 18.882-18.742 21.69-30.449l2.102-.093c.602-.613 1.438-1.036 2.329-1.16 2.64-.022 5.259.164 7.816.575 1.335.273 2.677.463 4.046.593l1.234.013c2.359.287 4.733-1.121 5.303-3.16.247-.834.141-1.703-.292-2.435-.719-1.24-2.265-1.931-3.953-1.799l-1.231-.033c-1.389.078-2.784.217-4.185.419-2.627.337-5.256.464-7.865.383-.835-.247-1.548-.67-2.057-1.263l-1.996-.147c.467-11.741-4.134-22.812-12.928-31.162.459-.417 1.111-1.109 1.319-1.319-.161-.727.04-1.525.543-2.189 1.822-1.773 3.84-3.403 6.01-4.871 1.18-.746 2.3-1.519 3.384-2.358l.94-.853c1.885-1.558 2.097-4.008.458-5.483l.004-.041zm-28.013 19.004-17.273 14.143-.079-.05c-1.068.883-2.501 1.207-3.879.95-1.378-.256-2.291-1.222-2.496-2.372l-3.648-18.893c8.383-.543 16.556.903 23.593 4.167 1.301.626 2.576 1.312 3.782 2.055zm7.661 5.961c6.027 6.182 9.297 14.071 9.316 22.466l-22.479-1.57c-1.462-.034-2.69-.778-3.168-1.912s-.122-2.461.912-3.43zm-45.973-10.312 1.095 19.32-.068.057c.076 1.179-.625 2.389-1.824 3.113-1.199.723-2.739.849-3.948.357l-.045.038-19.973-7.905c6.321-7.04 15.047-12.303 24.804-14.976zm53.989 42.054c-2.405 8.354-7.912 16.078-15.654 21.999l-10.919-16.171.068-.057c-.702-.987-.642-2.279.129-3.337.77-1.057 2.112-1.746 3.539-1.778l22.831-.594.004-.041zm-41.211-12.183 4.932 3.838-.894 5.881-5.971 3.578-6.599-1.485-2.268-5.428 3.826-5.247 6.956-1.16zm2.481 24.35c.237.148.491.34.624.478l13.175 14.9c-9.036 4.333-19.329 6.034-29.105 4.938l9.029-18.589c.813-1.723 3.083-2.7 5.064-2.177.409.101.789.284 1.103.502l.089-.054zm-26.811-20.758c.895.713 1.253 1.793.962 2.875s-1.155 2.025-2.353 2.519l-.069.056-21.195 8.935c-2.02-8.042-.781-16.674 3.528-24.575l18.514 9.817c.197.124.372.266.526.406l.063.006zm6.779 16.343c1.057.77 1.461 2.023 1.032 3.238l.058.048-6.543 19.076-4.036-1.577c-7.06-3.245-12.725-8.179-16.355-14.26l22.114-6.921c1.314-.398 2.697-.183 3.675.537l.053-.12z" fill="#005fd7"/><path d="m876.099 263.337c-3.424 10.905-3.852 24.888-19.814 29.643-9.291 14.54-25.002 27.138-40.957 27.138-28.14 0-46.82-28.77-46.82-61.727 0-32.956 22.812-59.672 50.953-59.672s56.638 31.662 56.638 64.618z" fill="#faa"/><path clip-rule="evenodd" d="m841.467 242.627c.577.595.563 1.544-.032 2.121-2.136 2.074-6.601 7.171-6.601 16.49 0 .828-.672 1.5-1.5 1.5s-1.5-.672-1.5-1.5c0-10.423 5.043-16.246 7.512-18.642.594-.577 1.544-.563 2.121.031z" fill="#000" fill-rule="evenodd"/><path clip-rule="evenodd" d="m816.018 294.679c.276-.781 1.133-1.19 1.914-.913 1.495.529 2.344 1.577 2.743 2.664.375 1.025.347 2.058.199 2.746-.174.809-.972 1.324-1.782 1.15-.81-.175-1.325-.973-1.151-1.782.051-.235.064-.679-.083-1.081-.125-.34-.363-.67-.927-.869-.781-.277-1.19-1.134-.913-1.915z" fill="#000" fill-rule="evenodd"/><path clip-rule="evenodd" d="m787.99 301.228c.439-.702 1.365-.916 2.067-.476 1.305.815 2.162 1.078 2.633 1.142.138.019.23.021.287.018.572-.41 1.371-.372 1.902.129.603.568.631 1.517.062 2.12-.661.701-1.705.835-2.654.706-1.027-.139-2.291-.615-3.821-1.572-.702-.439-.915-1.364-.476-2.067zm5.059.674s-.005.002-.018.004c.011-.003.018-.004.018-.004z" fill="#000" fill-rule="evenodd"/><path clip-rule="evenodd" d="m831.081 382.857c.692-.456 1.622-.265 2.078.427 19.053 28.921 49.16 48.038 80.593 55.329 31.441 7.292 64.057 2.722 88.208-15.504.66-.499 1.6-.368 2.1.294.5.661.37 1.602-.29 2.101-25.013 18.874-58.591 23.477-90.696 16.031-32.114-7.448-62.906-26.98-82.42-56.6-.456-.692-.265-1.622.427-2.078z" fill="#0c0c0d" fill-rule="evenodd"/><path clip-rule="evenodd" d="m946.249 308.486c.34.755.003 1.643-.753 1.983-3.056 1.376-7.843 4.084-11.19 9.331-3.319 5.203-5.356 13.111-2.546 25.166.188.807-.314 1.613-1.121 1.802-.807.188-1.613-.314-1.801-1.121-2.96-12.702-.886-21.465 2.939-27.46 3.795-5.95 9.184-8.966 12.488-10.453.756-.34 1.644-.003 1.984.752z" fill="#0c0c0d" fill-rule="evenodd"/><path d="m778.787 277.694c1.024 2.995.983 5.721-.092 6.089-1.074.367-2.776-1.763-3.8-4.758s-.983-5.721.092-6.089c1.075-.367 2.776 1.763 3.8 4.758z" fill="#0c0c0d"/><path d="m816.168 298.595c-7.393 10.529-12.156 15.948-23.638 4.793 1.569-.063 1.36-2.981 3.986-3.136 5.623-.333 10.037.934 19.652-1.657z" fill="#fff"/><path clip-rule="evenodd" d="m819.774 296.07-2.379 3.387c-1.845 2.629-3.58 5.017-5.319 6.912-1.736 1.891-3.58 3.409-5.686 4.166-4.425 1.591-9.094-.426-14.905-6.071l-2.505-2.433 3.345-.135c.088-.109.16-.229.282-.431.065-.108.144-.239.247-.404.259-.414.638-.977 1.221-1.438.616-.488 1.389-.811 2.352-.868 1.804-.107 3.417-.066 5.046-.024 3.806.097 7.698.196 14.305-1.584zm-18.725 5.665c-1.534-.037-2.977-.073-4.444.014-.35.021-.535.121-.667.226-.166.131-.325.331-.538.674-.032.051-.07.113-.113.185-.114.19-.264.439-.43.679 4.921 4.431 8.051 5.086 10.518 4.199 1.445-.52 2.895-1.634 4.49-3.372.895-.974 1.803-2.108 2.755-3.383-4.895.942-8.423.855-11.571.778z" fill="#000" fill-rule="evenodd"/><path clip-rule="evenodd" d="m805.293 268.447c-.81-.556-2.908-1.29-4.785 0-.682.47-1.616.297-2.086-.386-.469-.683-.296-1.616.387-2.086 3.309-2.276 6.831-.929 8.183 0 .683.469.856 1.403.387 2.086s-1.403.856-2.086.386z" fill="#000" fill-rule="evenodd"/><path clip-rule="evenodd" d="m774.809 272.266c-.6.002-.94.192-1.112.435-.479.676-1.415.836-2.091.357s-.836-1.415-.357-2.091c.924-1.305 2.367-1.696 3.546-1.701 1.162-.006 2.356.35 3.175.913.683.47.856 1.403.386 2.086-.469.683-1.403.856-2.085.386-.262-.179-.844-.388-1.462-.385z" fill="#000" fill-rule="evenodd"/><path d="m802.08 309.403c4.695.559 11.377-8.187 9.439-6.385-2.975 2.766-12.287 5.423-17.077 1.223.865.966 3.883 4.715 7.638 5.162z" fill="#000"/><path clip-rule="evenodd" d="m796.212 260.538c-1.779.244-3.885.075-4.624-1.561-1.153-2.553.722-6.2 8.121-6.199 9.712.001 12.772 2.016 18.194 7.086-6.907-1.383-14.582-.302-21.691.674z" fill="#0c0c0d" fill-rule="evenodd"/><path d="m776.657 261.402c-.607-1.789-4.957-4.688-10.374-.805v7.498c2.922-2.223 6.098-2.215 8.58-2.215 1.44-.064 2.4-2.69 1.794-4.478z" fill="#0c0c0d"/><path d="m807.049 273.245c1.473 3.117 1.604 6.146.293 6.765-1.311.62-3.567-1.405-5.04-4.522s-1.605-6.146-.294-6.766c1.311-.619 3.568 1.406 5.041 4.523z" fill="#0c0c0d"/><path d="m747.966 119.763 2.125 701.721c.009 2.838-.961 5.593-2.747 7.798l-74.863 92.378c-1.884 2.326-4.551 3.885-7.501 4.388l-127.443 21.698c-2.879.49-5.838-.059-8.349-1.548l-99.26-58.861c-3.74-2.217-6.033-6.244-6.033-10.593v-793.0709c0-4.5022 2.457-8.6453 6.406-10.8053l119.489-65.33441c2.262-1.23694 4.856-1.73305 7.416-1.41734l139.865 17.24625c4.185.516 7.815 3.1372 9.621 6.9472l40.093 84.5695c.739 1.558 1.128 3.222 1.181 4.884z" fill="url(#j)"/><g fill="url(#k)" filter="url(#a)"><path d="m628.993 331.296c-.715-.294-1.438-.819-2.17-1.556-.364-.375-.678-.748-.936-1.121-.249-.36-.448-.72-.589-1.082-.272-.737-.27-1.251.044-1.557.313-.306.827-.303 1.558.008.732.313 1.455.82 2.17 1.556.487.492.875.98 1.163 1.469.144.244.264.488.362.734.289.738.269 1.251-.044 1.557-.128.126-.29.2-.488.221-.148.017-.315.004-.504-.039l-.178-.047-.111-.037-.141-.05z"/><path d="m638.864 360.237-10.062-25.477 3.711 1.563 10.081 25.478z"/><path d="m647.029 350.853 6.053 15.329-3.711-1.563-10.079-25.478 3.588 1.506 1.579 3.976.313.136c.037-.938.457-1.719 1.339-2.054.846-.32 2.165-.074 3.994.69.679.283 1.347.612 2.005.989.925.53 1.826 1.152 2.699 1.871 1.51 1.21 2.869 2.681 4.113 4.377 1.243 1.715 2.299 3.651 3.153 5.81l6.41 16.193-3.713-1.563-6.294-15.923c-.789-1.997-1.905-3.777-3.332-5.303-1.429-1.527-2.994-2.669-4.72-3.375-1.186-.489-2.134-.669-2.849-.52s-1.124.646-1.244 1.456c-.12.811.099 1.97.696 3.446z"/><path d="m681.602 362.475 2.942.4c.007.008-1.052-1.554-1.231-1.795-.633-.847-1.31-1.658-2.038-2.435-.437-.464-.891-.916-1.363-1.355-1.812-1.684-3.902-3.024-6.288-4.021-1.708-.705-3.095-1.026-4.178-.963-1.082.064-1.791.497-2.123 1.28-.332.785-.216 1.887.348 3.326.344.859.778 1.696 1.306 2.513.556.862 1.216 1.703 1.983 2.523.7.758 1.511 1.503 2.428 2.236.505.402 1.041.799 1.607 1.193.58.403 1.194.802 1.839 1.196l4.41 2.689c1.332.815 2.415 1.637 3.233 2.483.816.847 1.4 1.721 1.756 2.603.137.341.217.648.237.918.026.322-.03.593-.165.812-.111.18-.276.325-.494.432-.705.361-1.937.17-3.663-.552-1.516-.628-2.881-1.496-4.096-2.572-1.196-1.074-2.242-2.373-3.122-3.877l-3.149-.55c1.29 2.336 2.959 4.421 5.014 6.22s4.32 3.217 6.774 4.252c1.882.784 3.393 1.126 4.547 1.066 1.153-.061 1.897-.51 2.23-1.329s.219-1.957-.361-3.414c-.708-1.782-1.811-3.455-3.324-5.038-1.515-1.583-3.457-3.094-5.826-4.551l-3.942-2.424c-.61-.381-1.169-.75-1.677-1.108-.71-.498-1.387-1.034-2.022-1.624-.888-.85-1.525-1.76-1.911-2.732-.435-1.097-.303-1.783.401-2.092.685-.309 1.778-.159 3.258.466.621.258 1.206.551 1.747.876.4.241.777.501 1.128.778.825.653 1.559 1.337 2.185 2.071l.426.509.381.477c.146.19.286.378.419.564.133.185.257.368.374.549z"/><path d="m698.805 364.094 1.322 3.311-5.168-2.164 5.888 14.873c.184.466.376.897.579 1.291.273.534.562.999.874 1.388.538.677 1.067 1.211 1.618 1.588.552.393 1.107.698 1.666.916.399.175.732.294.977.339l.259.065.32.082 2.15 3.84c-.095-.004-.21-.015-.346-.035-.167-.024-.364-.061-.587-.108-.403-.087-.963-.269-1.642-.561-1.047-.431-2.17-1.113-3.358-1.993-1.186-.879-2.295-1.968-3.344-3.213-.353-.427-.68-.867-.982-1.322-.199-.299-.386-.604-.562-.915-.34-.597-.639-1.218-.897-1.863l-6.299-15.917-3.655-1.532-1.322-3.311 3.668 1.538-2.414-6.1 3.683 1.533 2.418 6.111z"/><path d="m687.55 354.291-.029-.012.018-.017z"/><path clip-rule="evenodd" d="m717.294 392.844c1.496 1.122 3.002 2.014 4.535 2.659.652.274 2.863.878 3.296.856.339-.009.638-.055.896-.134.348-.107.619-.273.811-.489.351-.393.546-.811.564-1.253l.19.078 1.37 3.455 3.711 1.546-6.633-16.787c-.17-.427-.348-.842-.53-1.246-.247-.542-.505-1.062-.774-1.56-.477-.88-.994-1.69-1.553-2.425-.411-.541-.826-1.053-1.247-1.533-.713-.817-1.44-1.542-2.185-2.163-1.183-1.003-2.319-1.809-3.41-2.42-1.093-.627-2.031-1.089-2.796-1.42-1.22-.509-2.393-.857-3.502-1.024-1.125-.187-2.035-.063-2.742.37-.271.158-.493.381-.663.67-.276.463-.42 1.092-.431 1.889l4.052 2.8c.01-.237.051-.455.123-.655.161-.444.48-.8.956-1.074.348-.201.831-.256 1.454-.166.371.054.793.161 1.264.319.3.101.621.222.963.365 1.706.723 3.154 1.718 4.362 2.971.629.661 1.187 1.378 1.667 2.15.429.689.798 1.42 1.101 2.192l.049.126c.242.63.209.982-.113 1.058-.321.076-.919-.019-1.793-.301-.875-.282-2.013-.628-3.396-1.038-1.05-.307-2.086-.578-3.086-.777-1.002-.199-1.85-.232-2.565-.101-.667.137-1.16.574-1.342 1.239-.167.685.02 1.755.599 3.213.412 1.057.939 2.075 1.579 3.059.199.305.409.606.629.905.18.246.368.49.564.732.621.757 1.275 1.472 1.97 2.144.65.628 1.334 1.219 2.056 1.77zm4.136-.446-.429-.151c-1.48-.626-2.828-1.476-4.059-2.57-1.234-1.093-2.123-2.315-2.653-3.682-.387-.989-.447-1.683-.169-2.044.282-.378.769-.52 1.489-.472.725.046 1.533.22 2.444.486.234.064.508.148.824.246l.663.203c.612.183 1.226.366 1.875.534.629.167 1.192.295 1.65.349.282.032.491.037.629.007.096-.022.158-.06.19-.117l1.416 3.581c.42 1.062.561 1.953.426 2.709-.137.756-.598 1.216-1.366 1.398-.292.069-.633.08-1.024.035-.406-.047-.867-.156-1.379-.324-.169-.056-.345-.119-.527-.188z" fill-rule="evenodd"/><path d="m729.711 369.956 13.446 33.988-3.713-1.546-13.444-33.988z"/><path d="m753.644 408.344-13.446-33.988-3.711-1.546 13.444 33.988z"/></g><path d="m911.592 256.427c-14.906-25.959-35.455-81.256-85.933-76.736-31.534 2.824-43.523 17.765-61.857 35.418-25.396 32.015-9.336 48.237 4.756 55.613 0-21.959 5.239-36.732 22.077-44.937 7.22 14.455 35.024 39.056 44.284 29.881 1.644-7.917 10.48-17.644 25.436-12.915 15.205 4.808 18.277 31.461-5.004 41.371-24.705 66.244 28.491 77.768 47.506 40.591 7.776-15.202 15.384-31.456 32.328-29.347 17.594 2.19 40.632 9.759 62.35 20.576 5.345-43.105-40.487-25.582-74.945-47.717-4.589-2.947-8.282-7.069-10.998-11.798z" fill="#0c0c0d"/><path d="m854.965 247.879c-7.97 7.187-8.116 24.754-8.116 24.754" stroke="#0c0c0d" stroke-linecap="round" stroke-width="3"/><path d="m108.504 959.512c-3.071-1.793-4.959-5.081-4.959-8.637v-807.652c0-3.53 1.862-6.799 4.899-8.601l223.39-132.49638c3.094-1.835019 6.935-1.866977 10.059-.0837l216.819 123.76808c3.118 1.78 5.043 5.095 5.043 8.685v816.46c0 3.513-1.843 6.768-4.854 8.575l-216.986 130.21c-3.13 1.88-7.035 1.91-10.187.07z" fill="url(#l)"/><path d="m153.497 985.505c-3.071-1.792-4.959-5.081-4.959-8.636v-341.795c0-3.531 1.862-6.8 4.899-8.601l177.774-105.441c3.094-1.835 6.935-1.867 10.059-.084l172.449 98.441c3.118 1.779 5.043 5.094 5.043 8.684v348.876c0 3.513-1.843 6.768-4.855 8.575l-172.616 103.586c-3.13 1.88-7.034 1.9-10.186.06z" fill="url(#m)"/><path d="m153.497 985.505c-3.071-1.792-4.959-5.081-4.959-8.636v-341.795c0-3.531 1.862-6.8 4.899-8.601l177.774-105.441c3.094-1.835 6.935-1.867 10.059-.084l172.449 98.441c3.118 1.779 5.043 5.094 5.043 8.684v348.876c0 3.513-1.843 6.768-4.855 8.575l-172.616 103.586c-3.13 1.88-7.034 1.9-10.186.06z" fill="url(#n)"/><path d="m357.824 1105.55c-3.082-1.79-4.978-5.09-4.978-8.65v-423.924c0-3.547 1.878-6.827 4.936-8.623l311.308-182.838c3.113-1.828 6.97-1.836 10.091-.021l139.3 81.008c3.079 1.791 4.973 5.083 4.973 8.645v431.393c0 3.53-1.865 6.8-4.907 8.6l-303.67 179.7c-3.115 1.85-6.984 1.86-10.115.05z" fill="url(#o)"/><path clip-rule="evenodd" d="m329.039 765.07c.828 0 1.5.672 1.5 1.5v280.87c0 .83-.672 1.5-1.5 1.5s-1.5-.67-1.5-1.5v-280.87c0-.828.672-1.5 1.5-1.5z" fill="#14baff" fill-rule="evenodd"/><path clip-rule="evenodd" d="m152.133 631.537c.42-.714 1.339-.953 2.053-.533l137.195 80.63c.714.419.953 1.339.533 2.053-.419.714-1.339.953-2.053.533l-137.195-80.63c-.714-.42-.953-1.339-.533-2.053zm175.279 104.55c-.424-.712-.191-1.633.521-2.057l182.059-108.503c.712-.424 1.633-.191 2.057.521.424.711.191 1.632-.521 2.056l-182.06 108.503c-.711.424-1.632.191-2.056-.52z" fill="#14baff" fill-rule="evenodd"/><path d="m290.376 788.14c-2.543-4.108-8.376-8.554-12.928-9.994-.533-6.758-2.97-13.871-7.202-21.411l-2.436-4.054-1.707 2.703c-2.206 4.125-3.201 9.834-2.864 16.36.178 3.61.943 7.433 2.223 11.168-2.649.426-5.601-.356-8.589-2.241l-76.662-45.862-.213 1.156c-.747 5.993-.747 26.158 7.913 46.804 6.58 15.72 16.325 27.493 29.146 35.175 27.777 16.609 48.352 9.407 57.99-20.13 3.824 2.436 11.968 7.166 16.112-2.454.106-.249.32-.783 1.067-2.757l.426-1.031-2.329-3.486.035.036zm-48.885-74.724-11.666-6.971v16.129l11.666 6.971zm0 19.348-11.666-6.971v16.129l11.666 6.971zm-13.782-8.251-11.665-6.971v16.129l11.665 6.971zm-13.781-8.252-11.648-6.97v16.129l11.665 6.971v-16.112zm-13.782 11.097-11.648-6.971v16.129l11.666 6.971v-16.129zm2.134 1.28v16.129l11.665 6.971v-16.129zm25.429 15.222-11.665-6.97v16.129l11.665 6.971zm13.782 8.252-11.666-6.971v16.129l11.666 6.971zm13.782 8.251-11.666-6.971v16.129l11.666 6.971z" fill="#fff"/><path d="m364.094 1108.51c-3.082-1.78-4.978-5.08-4.978-8.64v-251.754c0-3.546 1.878-6.827 4.936-8.623l297.11-174.499c3.113-1.828 6.97-1.836 10.091-.021l132.701 77.171c3.079 1.79 4.973 5.083 4.973 8.644v258.892c0 3.53-1.866 6.8-4.907 8.6l-289.81 171.5c-3.116 1.85-6.985 1.86-10.115.05z" fill="url(#p)"/><path d="m364.094 1108.51c-3.082-1.78-4.978-5.08-4.978-8.64v-251.754c0-3.546 1.878-6.827 4.936-8.623l297.11-174.499c3.113-1.828 6.97-1.836 10.091-.021l132.701 77.171c3.079 1.79 4.973 5.083 4.973 8.644v258.892c0 3.53-1.866 6.8-4.907 8.6l-289.81 171.5c-3.116 1.85-6.985 1.86-10.115.05z" fill="url(#q)"/><path clip-rule="evenodd" d="m359.877 841.106 110.682 65.191-1.522 2.585-110.683-65.192zm147.787 95.238c0-3.981 2.059-7.679 5.443-9.775l295.029-182.802 1.581 2.55-295.03 182.802c-2.501 1.549-4.023 4.283-4.023 7.225v227.226h-3z" fill="#00cdcf" fill-rule="evenodd"/><path d="m526.853 1203.88c-3.071-1.79-4.959-5.08-4.959-8.63v-569.703c0-3.555 1.888-6.842 4.958-8.635l256.122-149.567c3.118-1.821 6.976-1.82 10.093.004l94.578 55.338c3.066 1.793 4.95 5.079 4.95 8.631l.001 577.342c0 3.54-1.873 6.82-4.923 8.62l-248.318 146.35c-3.12 1.84-6.991 1.85-10.119.02z" fill="url(#r)"/><path d="m528.985 1204.37c-3.071-1.79-4.959-5.08-4.959-8.64v-181.75c0-3.55 1.888-6.84 4.957-8.63l238.745-139.421c3.118-1.821 6.976-1.819 10.093.004l87.75 51.342c3.066 1.794 4.95 5.08 4.95 8.632v188.893c0 3.54-1.872 6.82-4.922 8.62l-231.452 136.41c-3.12 1.84-6.991 1.85-10.119.02z" fill="url(#s)"/><path d="m592.965 1144.93c.482-.88.597-1.92.319-2.89-.277-.96-.925-1.78-1.802-2.27l-10.597-5.91 10.395-6.18c.86-.51 1.48-1.35 1.724-2.32.244-.98.092-2.01-.422-2.87-.252-.43-.587-.8-.985-1.1-.399-.3-.853-.52-1.337-.64-.483-.12-.987-.15-1.479-.07-.493.08-.966.25-1.39.51l-10.395 6.18-.163-12.12c-.018-1-.434-1.96-1.154-2.66-.721-.7-1.689-1.09-2.694-1.08-.499.01-.992.11-1.45.31s-.873.48-1.22.84c-.348.36-.621.78-.805 1.24-.184.47-.275.96-.267 1.46l.176 12.14-10.577-5.92c-.881-.49-1.918-.6-2.883-.32-.966.27-1.783.92-2.274 1.8-.242.43-.396.91-.454 1.4-.057.5-.016 1 .12 1.47.137.48.366.93.676 1.31.309.39.693.72 1.128.96l10.597 5.9-10.381 6.2c-.427.26-.799.59-1.096.99-.298.39-.513.85-.636 1.33-.122.48-.148.98-.077 1.47.072.49.239.96.494 1.38.254.43.591.81.99 1.11s.854.51 1.338.64c.483.12.986.15 1.48.07.494-.07.968-.24 1.396-.49l10.381-6.2.177 12.13c.017 1 .431 1.96 1.149 2.65.719.7 1.684 1.09 2.686 1.07.498 0 .991-.11 1.449-.3.458-.2.873-.49 1.221-.84.347-.36.621-.78.805-1.25.184-.46.274-.96.266-1.46l-.176-12.13 10.577 5.92c.88.49 1.918.61 2.887.33.968-.27 1.789-.92 2.283-1.79z" fill="#fff"/><path d="m557.284 814.173c.591.098 1.051.262 1.38.458.476.278.689.703.607 1.308l-.673 2.763c-.099.392-.329.703-.674.899-.427.245-1.084.36-1.921.376-1.298-.065-2.546-.196-3.728-.392-1.216-.213-2.53-.491-4.074-.85 1.051 4.512-.903 8.273-5.88 11.249-3.531 2.125-7.473 3.155-11.792 3.057-4.32-.098-8.377-1.226-12.138-3.45-3.991-2.354-5.978-5.019-5.863-8.011.115-2.976 2.299-5.756 6.635-8.355 1.429-.867 3.039-1.668 4.829-2.453 1.79-.801 3.761-1.537 5.863-2.305l-3.432-2.028c-3.581-2.109-6.734-3.172-9.51-3.237-2.809-.049-5.781.899-9.017 2.845-1.478.883-2.792 1.913-3.925 3.09-1.134 1.177-2.136 2.404-2.94 3.679-.345.605-.657 1.014-.854 1.242-.198.229-.362.393-.526.491-.591.36-1.347.262-2.349-.327l-2.299-1.357c-.756-.442-1.232-.834-1.347-1.145-.115-.327-.066-.735.197-1.291.624-1.39 1.692-2.862 3.186-4.431 1.446-1.602 3.351-3.074 5.667-4.464 5.009-3.008 9.937-4.463 14.831-4.382 4.845.099 9.887 1.668 15.061 4.709l15.242 8.977c1.757 1.03 3.4 1.7 4.73 2.141-.025.026 1.903.634 4.714 1.194zm-19.299 11.102c1.396-.834 2.53-1.864 3.482-3.107.953-1.242 1.265-2.665.986-4.169-.214-.932-.706-1.815-1.577-2.632-.87-.818-2.069-1.717-3.679-2.666l-1.971-1.16c-1.544.539-3.137 1.16-4.664 1.847-1.528.703-2.94 1.423-4.238 2.207-2.825 1.701-4.27 3.287-4.385 4.873s1.002 3.041 3.35 4.431c2.218 1.308 4.369 1.962 6.537 1.994 4.451.167 6.159-1.652 6.159-1.618zm38.86-17.315c-.755.458-1.396.67-2.069.687-.624.032-1.577-.18-2.71-.556l-46.235-15.468c-1.199-.408-1.938-.686-2.266-.882-.756-.442-.838-.9-.164-1.292l4.122-2.485c.805-.475 1.495-.72 2.119-.703.624-.033 1.527.196 2.677.572l38.203 14.077-24.571-22.269c-.723-.686-1.084-1.193-1.035-1.553.05-.376.46-.834 1.216-1.292l3.367-2.027c.805-.474 1.494-.719 2.151-.736.625-.032 1.577.18 2.628.605l38.154 14.552-24.242-22.923c-.69-.703-1.002-1.243-.986-1.586.05-.376.411-.801 1.166-1.259l3.909-2.354c.674-.409 1.429-.409 2.234.065.23.131.427.294.673.491.247.196.526.457.887.866l26.214 27.501c.689.703 1.002 1.243.952 1.619-.049.376-.41.801-1.133 1.242l-3.613 2.175c-.805.474-1.495.719-2.152.736-.673 0-1.577-.18-2.677-.622l-36.856-13.946 23.815 21.729c.723.687 1.084 1.194 1.084 1.586s-.46.834-1.215 1.292zm55.318-31.736c-2.185 1.308-4.649 2.469-7.326 3.401-2.66.932-4.911 1.553-6.717 1.799-1.101.147-2.037.163-2.628 0-.591-.148-1.15-.376-1.577-.622l-2.398-1.406c-.985-.588-1.117-1.063-.493-1.439.247-.147.559-.278.904-.376s.919-.212 1.527-.359c2.135-.442 4.254-1.047 6.274-1.815 2.053-.785 3.893-1.668 5.568-2.682 2.644-1.586 4.188-3.139 4.583-4.61.394-1.472-.345-2.813-2.283-3.941-1.314-.768-2.776-1.177-4.435-1.259-1.659-.065-3.876.311-6.701 1.112l-8.212 2.42c-4.156 1.21-8.015 1.635-11.53 1.226-3.466-.376-6.471-1.308-8.919-2.747-1.971-1.161-3.334-2.42-4.089-3.76-.756-1.341-1.051-2.731-.822-4.088.181-1.39.805-2.73 1.922-4.071s2.644-2.551 4.5-3.662c.92-.556 1.938-1.112 3.006-1.586 1.101-.491 2.185-.916 3.252-1.341 1.084-.36 2.119-.703 3.154-.997 1.034-.295 1.905-.475 2.611-.556.969-.131 1.757-.164 2.431-.066.624.066 1.265.295 1.938.687l2.217 1.308c.986.589 1.166 1.095.542 1.471-.328.197-1.067.426-2.168.622-3.613.719-6.931 1.978-9.904 3.777-2.398 1.438-3.859 2.828-4.27 4.136s.279 2.518 2.217 3.646c1.314.769 2.875 1.194 4.599 1.21 1.741.017 4.188-.392 7.21-1.259l8.081-2.338c4.106-1.177 7.802-1.618 11.037-1.259 3.236.36 6.077 1.276 8.525 2.714 2.02 1.194 3.481 2.502 4.368 3.875.838 1.39 1.249 2.829 1.068 4.284-.131 1.472-.838 2.91-2.037 4.349-1.231 1.521-2.874 2.911-5.025 4.202z" fill="#fff"/><path clip-rule="evenodd" d="m662.942 784.904c-2.414 15.042-16.441 30.706-33.736 41.088-24.225 14.568-56.072 21.778-89.2 21.893-2.628 0-3.236-1.75-.641-2.077 29.4-3.907 58.405-12.998 81.153-26.683 15.357-9.222 28.644-21.468 36.823-35.12 1.13-2.069 5.601-1.748 5.601.899z" fill="#fff" fill-rule="evenodd"/><path clip-rule="evenodd" d="m644.58 786.505c-1.15.916-2.677.278-2.447-1.046 1.691-8.404 16.473-15.173 20.07-14.863 3.63.344 16.227 10.056 15.784 18.607-.049 1.324-1.708 1.651-2.612.507-2.972-3.761-9.723-12.181-13.977-12.59-4.69.498-12.418 5.929-16.818 9.385z" fill="#fff" fill-rule="evenodd"/><path clip-rule="evenodd" d="m543.351 1023.54c.421-.72 1.34-.96 2.054-.53l55.37 32.61c.713.42.951 1.34.531 2.05-.421.72-1.34.95-2.054.53l-55.369-32.61c-.714-.42-.952-1.34-.532-2.05zm84.692 51.42c-.436-.7-.219-1.63.485-2.06l223.152-138.27c.704-.437 1.629-.219 2.065.485.437.704.219 1.629-.485 2.065l-223.152 138.27c-.704.43-1.629.22-2.065-.49zm1.275 25.03c.829 0 1.5.67 1.5 1.5v151.98c0 .83-.671 1.5-1.5 1.5-.828 0-1.5-.67-1.5-1.5v-151.98c0-.83.672-1.5 1.5-1.5z" fill="#006ef7" fill-rule="evenodd"/></svg>
